<svg width="51" height="50" viewBox="0 0 51 50" fill="none" xmlns="http://www.w3.org/2000/svg">
<g clip-path="url(#clip0_316_529)">
<path d="M25.5 0C11.7146 0 0.5 11.2146 0.5 25C0.5 38.7854 11.7146 50 25.5 50C39.2854 50 50.5 38.7854 50.5 25C50.5 11.2146 39.2854 0 25.5 0ZM28.625 29.1667H19.25V37.5C19.25 38.65 18.3187 39.5833 17.1667 39.5833C16.0146 39.5833 15.0833 38.65 15.0833 37.5V18.75C15.0833 14.1542 18.8208 10.4167 23.4167 10.4167H28.625C33.7937 10.4167 38 14.6229 38 19.7917C38 24.9604 33.7937 29.1667 28.625 29.1667ZM33.8333 19.7917C33.8333 22.6625 31.4979 25 28.625 25H19.25V18.75C19.25 16.4521 21.1187 14.5833 23.4167 14.5833H28.625C31.4979 14.5833 33.8333 16.9208 33.8333 19.7917Z" fill="#1B86DE"/>
</g>
<defs>
<clipPath id="clip0_316_529">
<rect width="50" height="50" fill="white" transform="translate(0.5)"/>
</clipPath>
</defs>
</svg>
