<svg width="50" height="50" viewBox="0 0 50 50" fill="none" xmlns="http://www.w3.org/2000/svg">
<g clip-path="url(#clip0_316_533)">
<path d="M9.375 16.6667C4.19792 16.6667 0 20.8646 0 26.0417C0 29.9896 2.44792 33.3521 5.90208 34.7333L8.125 37.025L5.17917 39.9708L8.125 42.9167L5.21042 45.8312L9.375 49.9979L13.5437 45.8312V34.3958C16.6187 32.8583 18.75 29.7125 18.75 26.0396C18.75 20.8625 14.5521 16.6667 9.375 16.6667ZM9.375 27.0833C7.65 27.0833 6.25 25.6833 6.25 23.9583C6.25 22.2333 7.65 20.8333 9.375 20.8333C11.1 20.8333 12.5 22.2333 12.5 23.9583C12.5 25.6833 11.1 27.0833 9.375 27.0833ZM49.9937 6.25V20.8333C49.9937 24.2792 47.1896 27.0833 43.7437 27.0833H25.4375C22.8958 27.0833 20.8271 25.0146 20.8271 22.4729C20.8271 20.1937 22.5271 18.2312 24.7854 17.9083L33.6208 16.6458L33.5167 15.9187L33.0312 12.5208L24.1979 13.7833C22.1354 14.0771 20.3375 15.1042 19.0125 16.5604C16.5562 14.0625 13.1542 12.5 9.375 12.5C7.87917 12.5 6.44583 12.7521 5.1 13.2L23.6104 0H43.7437C47.1896 0 49.9937 2.80208 49.9937 6.25Z" fill="#1B86DE"/>
</g>
<defs>
<clipPath id="clip0_316_533">
<rect width="50" height="50" fill="white"/>
</clipPath>
</defs>
</svg>
