<svg width="51" height="50" viewBox="0 0 51 50" fill="none" xmlns="http://www.w3.org/2000/svg">
<g clip-path="url(#clip0_259_850)">
<path d="M46.1668 12.5H31.5835C29.2814 12.5 27.4168 10.6354 27.4168 8.33333V4.16667C27.4168 1.86458 29.2814 0 31.5835 0H42.0002C46.6022 0 50.3335 3.73125 50.3335 8.33333C50.3335 10.6354 48.4689 12.5 46.1668 12.5ZM14.9168 16.6667V8.33333C14.9168 6.03125 13.0522 4.16667 10.7502 4.16667H8.66683C4.06475 4.16667 0.333496 7.89792 0.333496 12.5V16.6667H14.9168ZM17.0002 50H33.6668V37.5H17.0002V50ZM37.8335 37.5V50H42.0002C46.6022 50 50.3335 46.2687 50.3335 41.6667V37.5H37.8335ZM12.8335 37.5H0.333496V41.6667C0.333496 46.2687 4.06475 50 8.66683 50H12.8335V37.5ZM23.2502 20.8333H0.333496V33.3333H23.2502V20.8333ZM27.4168 20.8333V33.3333H50.3335V25C50.3335 22.6979 48.4689 20.8333 46.1668 20.8333H27.4168Z" fill="#1B86DE"/>
</g>
<defs>
<clipPath id="clip0_259_850">
<rect width="50" height="50" fill="white" transform="translate(0.333496)"/>
</clipPath>
</defs>
</svg>
