<svg width="50" height="50" viewBox="0 0 50 50" fill="none" xmlns="http://www.w3.org/2000/svg">
<g clip-path="url(#clip0_259_838)">
<path d="M0 49.9998C0 49.9998 11.3646 41.6665 25 41.6665C38.6354 41.6665 50 49.9998 50 49.9998H0ZM25 0.00400747C25 0.00400747 28.0896 7.49567 34.9917 12.1061C41.8937 16.7165 50 16.6957 50 16.6957C50 16.6957 47.6792 8.55609 40.775 3.94776C33.8708 -0.660576 25 0.00400747 25 0.00400747C25 0.00400747 16.2208 -0.293909 9.31667 4.31442C2.4125 8.92484 0 16.6957 0 16.6957C0 16.6957 8.10417 16.7144 15.0083 12.1061C21.9125 7.49776 25 0.00400747 25 0.00400747ZM25 8.13317C23.1583 10.6123 20.6229 13.3665 17.3208 15.5707C16.4312 16.1644 15.525 16.6853 14.6167 17.154C14.4479 21.4061 16.1729 24.9998 16.1729 24.9998C16.1729 24.9998 22.775 22.0332 24.925 16.2228C26.0125 13.2853 25.7521 10.1853 25.2292 7.83734C25.15 7.94359 25.0792 8.01651 24.9979 8.13317H25ZM24.1 37.5311C24.4021 37.5248 24.6958 37.4978 25 37.4978C28.3312 37.4978 31.5146 37.954 34.4708 38.6457C35.325 33.7478 36.0875 26.1811 34.4542 19.2394C34.2021 18.1728 33.9396 17.1644 33.6708 16.1873C33.3396 15.9853 33.0062 15.7873 32.6771 15.5686C31.6104 14.8561 30.6521 14.0769 29.7437 13.279C29.6167 14.8207 29.3375 16.304 28.8333 17.6686C28.5542 18.4207 28.2167 19.1228 27.8479 19.7936C27.8479 19.9561 27.8542 20.1207 27.8542 20.279C27.8542 26.6061 25.9042 32.9769 24.1 37.5311Z" fill="#1B86DE"/>
</g>
<defs>
<clipPath id="clip0_259_838">
<rect width="50" height="50" fill="white"/>
</clipPath>
</defs>
</svg>
