<svg width="51" height="50" viewBox="0 0 51 50" fill="none" xmlns="http://www.w3.org/2000/svg">
<g clip-path="url(#clip0_259_840)">
<path d="M38.1186 25C31.2145 25 25.6187 30.5958 25.6187 37.5C25.6187 44.4042 31.2145 50 38.1186 50C45.0228 50 50.6186 44.4042 50.6186 37.5C50.6186 30.5958 45.0228 25 38.1186 25ZM44.9957 41.5312C44.677 43.7812 42.6874 45.4167 40.4145 45.4167H39.8312V46.2667C39.8312 47.1771 39.0957 47.9167 38.1853 47.9167H38.1437C37.2353 47.9167 36.4999 47.175 36.4999 46.2667V45.4167H36.0832C34.602 45.4167 33.2749 44.7396 32.3957 43.6812C31.5249 42.6312 32.2645 41.0438 33.6291 41.0438C34.102 41.0438 34.6916 41.2667 35.0124 41.6146C35.2791 41.9042 35.6624 42.0854 36.0853 42.0854H40.4666C41.0457 42.0854 41.5749 41.6958 41.6874 41.1271C41.8187 40.4646 41.3832 39.8458 40.7478 39.7167L34.9332 38.5521C32.6166 38.0875 30.9999 35.8833 31.3395 33.4708C31.6561 31.2208 33.6478 29.5833 35.9207 29.5833H36.5041V28.75C36.5041 27.8292 37.2499 27.0833 38.1707 27.0833C39.0916 27.0833 39.8374 27.8292 39.8374 28.75V29.5833H40.2541C41.7353 29.5833 43.0624 30.2583 43.9416 31.3187C44.8124 32.3687 44.0728 33.9562 42.7082 33.9562C42.2353 33.9562 41.6457 33.7333 41.3249 33.3854C41.0582 33.0958 40.6749 32.9146 40.252 32.9146H35.8728C35.2937 32.9146 34.7645 33.3021 34.6499 33.8687C34.5166 34.5312 34.9541 35.1542 35.5853 35.2812L41.402 36.4458C43.7187 36.9083 45.3374 39.1167 44.9957 41.5271V41.5312ZM50.6666 2.53333V12.7688C50.6666 14.3812 48.7166 15.1896 47.5749 14.05L44.3062 10.7812L38.6145 16.4729C35.4978 19.5896 30.4228 19.5917 27.302 16.4729L21.6937 10.8625C21.0124 10.1813 19.9041 10.1813 19.2207 10.8625L6.00199 24.0854C5.39157 24.6958 4.59157 25 3.79157 25C2.99157 25 2.19157 24.6958 1.58115 24.0854C0.360319 22.8667 0.360319 20.8854 1.58115 19.6667L14.8041 6.44375C17.9207 3.325 22.9978 3.325 26.1145 6.44375L31.7228 12.0521C32.4061 12.7333 33.5124 12.7333 34.1978 12.0521L39.8895 6.36042L36.6207 3.09167C35.4791 1.95 36.2874 0 37.902 0H48.1395C49.5374 0 50.6728 1.13333 50.6728 2.53333H50.6666ZM8.9999 32.2917V46.875C8.9999 48.6 7.60199 50 5.8749 50C4.14782 50 2.7499 48.6 2.7499 46.875V32.2917C2.7499 30.5667 4.14782 29.1667 5.8749 29.1667C7.60199 29.1667 8.9999 30.5667 8.9999 32.2917ZM19.4166 23.9583V46.875C19.4166 48.6 18.0187 50 16.2916 50C14.5645 50 13.1666 48.6 13.1666 46.875V23.9583C13.1666 22.2312 14.5645 20.8333 16.2916 20.8333C18.0187 20.8333 19.4166 22.2312 19.4166 23.9583Z" fill="#1B86DE"/>
</g>
<defs>
<clipPath id="clip0_259_840">
<rect width="50" height="50" fill="white" transform="translate(0.666504)"/>
</clipPath>
</defs>
</svg>
