<svg width="50" height="50" viewBox="0 0 50 50" fill="none" xmlns="http://www.w3.org/2000/svg">
<g clip-path="url(#clip0_259_852)">
<path d="M13.5417 18.75C7.27924 18.75 7.63483e-05 22.3896 7.63483e-05 27.0833C7.63483e-05 29.3812 1.86883 31.25 4.16674 31.25C5.03133 31.25 5.83341 30.9854 6.50008 30.5333C7.06883 32.1583 8.60008 33.3333 10.4167 33.3333C12.0792 33.3333 13.5063 32.3479 14.1751 30.9375C15.8042 32.5604 16.6667 34.7479 16.6667 37.5C16.6667 42.0792 12.9292 45.8062 8.33341 45.8062C6.51049 45.8062 4.83341 45.2313 3.35008 44.0958C2.43758 43.4 1.13133 43.5667 0.429243 44.4854C-0.270757 45.3979 -0.095757 46.7062 0.816743 47.4042C3.01258 49.0833 5.61049 49.9729 8.32924 49.9729L31.2459 50C31.9417 50 32.5917 49.6521 32.9792 49.0729C33.0792 48.925 35.4126 45.3562 35.4126 39.5833C35.4126 27.9021 25.8042 18.75 13.5376 18.75H13.5417ZM48.1688 46.6479L47.8855 48.2729C47.7126 49.2708 46.8459 50 45.8334 50H37.2251C38.1647 48.1312 39.5834 44.5167 39.5834 39.5833C39.5834 30.9187 35.2063 23.425 28.423 18.9562C27.248 15.2208 24.773 12.7229 21.7938 11.2271C21.4147 13.1375 19.7292 14.5833 17.7084 14.5833C15.6063 14.5833 13.8813 13.0146 13.6001 10.9896C12.8355 11.9042 11.7001 12.5 10.4167 12.5C8.11883 12.5 6.25008 10.6312 6.25008 8.33333C6.26258 7.37708 6.62091 6.39792 7.22716 5.68333C9.23758 2.82917 14.3126 0 21.998 0C37.7584 0 50.1063 11.6729 50.1063 26.5729C50.4147 33.7979 49.273 40.3292 48.1667 46.6458L48.1688 46.6479Z" fill="#1B86DE"/>
</g>
<defs>
<clipPath id="clip0_259_852">
<rect width="50" height="50" fill="white"/>
</clipPath>
</defs>
</svg>
