<svg width="51" height="50" viewBox="0 0 51 50" fill="none" xmlns="http://www.w3.org/2000/svg">
<g clip-path="url(#clip0_259_854)">
<path d="M44.4165 0H27.7498C24.304 0 21.4998 2.80417 21.4998 6.25V13.5396C21.9561 13.7833 22.3978 14.0625 22.8186 14.3917L29.8332 19.8833V18.7521H33.9998V23.1438L34.1686 23.275C36.7103 25.2625 38.1665 28.2542 38.1665 31.4792V35.4188H42.3332V39.5854H38.1665V50.0021H50.6665V6.25C50.6665 2.80417 47.8623 0 44.4165 0ZM33.9998 14.5833H29.8332V10.4167H33.9998V14.5833ZM42.3332 31.25H38.1665V27.0833H42.3332V31.25ZM42.3332 22.9167H38.1665V18.75H42.3332V22.9167ZM42.3332 14.5833H38.1665V10.4167H42.3332V14.5833ZM31.6019 26.5563L20.2519 17.6708C18.5353 16.3271 16.1332 16.325 14.4165 17.6708L3.06442 26.5542C1.5415 27.7479 0.666504 29.5438 0.666504 31.4771V50H33.9998V31.4771C33.9998 29.5417 33.1248 27.7479 31.6019 26.5563ZM21.4998 39.5833H13.1665V31.25H21.4998V39.5833Z" fill="#1B86DE"/>
</g>
<defs>
<clipPath id="clip0_259_854">
<rect width="50" height="50" fill="white" transform="translate(0.666504)"/>
</clipPath>
</defs>
</svg>
