<svg width="51" height="50" viewBox="0 0 51 50" fill="none" xmlns="http://www.w3.org/2000/svg">
<g clip-path="url(#clip0_259_856)">
<path d="M25.3335 16.3292L8.66683 21.8854V16.6667C8.66683 15.0091 9.32531 13.4194 10.4974 12.2473C11.6695 11.0751 13.2592 10.4167 14.9168 10.4167H35.7502C37.4078 10.4167 38.9975 11.0751 40.1696 12.2473C41.3417 13.4194 42.0002 15.0091 42.0002 16.6667V21.8854L25.3335 16.3292ZM46.1668 43.75C46.1668 44.4667 44.746 45.8333 42.521 45.8333C41.8856 45.8575 41.2528 45.7391 40.6691 45.4867C40.0855 45.2344 39.5657 44.8545 39.1481 44.375C41.3664 42.2168 43.1303 39.6363 44.3357 36.7857C45.5411 33.9351 46.1637 30.8721 46.1668 27.7771V27.6646L27.4168 21.4146V43.75H23.2502V21.4167L4.50016 27.6667V27.7792C4.50516 30.8747 5.12987 33.9379 6.33746 36.7882C7.54505 39.6384 9.31107 42.2181 11.5314 44.375C11.1122 44.8559 10.5904 45.2366 10.0045 45.489C9.41857 45.7414 8.78346 45.8591 8.146 45.8333C5.87725 45.8333 4.50016 44.3875 4.50016 43.75H0.333496C0.333496 47.1375 3.91266 50 8.146 50C10.2439 50.0159 12.2775 49.2764 13.8752 47.9167C15.4831 49.2544 17.5074 49.9893 19.5991 49.9947C21.6908 50 23.7188 49.2754 25.3335 47.9458C26.9482 49.2754 28.9762 50 31.0679 49.9947C33.1596 49.9893 35.1839 49.2544 36.7918 47.9167C38.389 49.2759 40.4217 50.0154 42.5189 50C46.7543 50 50.3335 47.1375 50.3335 43.75H46.1668ZM33.6668 4.16667C33.6668 3.0616 33.2278 2.00179 32.4464 1.22039C31.665 0.438987 30.6052 0 29.5002 0L21.1668 0C20.0618 0 19.002 0.438987 18.2206 1.22039C17.4391 2.00179 17.0002 3.0616 17.0002 4.16667V6.25H33.6668V4.16667Z" fill="#1B86DE"/>
</g>
<defs>
<clipPath id="clip0_259_856">
<rect width="50" height="50" fill="white" transform="translate(0.333496)"/>
</clipPath>
</defs>
</svg>
