<svg width="57" height="57" viewBox="0 0 57 57" fill="none" xmlns="http://www.w3.org/2000/svg">
<path d="M20.5 27C13.0561 27 7 20.9443 7 13.5C7 6.05566 13.0561 0 20.5 0C27.9438 0 34 6.05566 34 13.5C34 20.9443 27.9438 27 20.5 27ZM20.5 3C14.7105 3 10 7.70996 10 13.5C10 19.29 14.7105 24 20.5 24C26.2896 24 31 19.29 31 13.5C31 7.70996 26.2896 3 20.5 3Z" fill="#A783FF"/>
<path d="M24.5 54H1.5C0.67139 54 0 53.3281 0 52.5V30.5C0 26.916 2.91602 24 6.5 24H34.5C38.084 24 41 26.916 41 30.5V31.3604C41 32.1885 40.3281 32.8604 39.5 32.8604C38.6719 32.8604 38 32.1885 38 31.3604V30.5C38 28.5703 36.4297 27 34.5 27H6.5C4.57031 27 3 28.5703 3 30.5V51H24.5C25.3286 51 26 51.6719 26 52.5C26 53.3281 25.3286 54 24.5 54Z" fill="#A783FF"/>
<path d="M20.5 54C19.6714 54 19 53.3281 19 52.5V40.5C19 39.6719 19.6714 39 20.5 39C21.3286 39 22 39.6719 22 40.5V52.5C22 53.3281 21.3286 54 20.5 54ZM31.541 15.0508C29.3613 15.0508 24.5581 14.4697 20.5 9.90527C15.1821 15.8867 8.58741 15.0264 8.2881 14.9853C7.46779 14.8682 6.89796 14.1084 7.01515 13.2881C7.13185 12.4707 7.88917 11.9092 8.7046 12.0137C8.96778 12.0479 14.9072 12.749 19.2793 6.62793C19.8428 5.84082 21.1572 5.84082 21.7207 6.62793C26.0952 12.7539 32.044 12.0459 32.2959 12.0137C33.1084 11.9023 33.8692 12.4795 33.9815 13.2969C34.0938 14.1143 33.5293 14.8682 32.7119 14.9853C32.6416 14.9951 32.2168 15.0508 31.541 15.0508ZM20.5 21C18.3784 21 16.3443 20.0898 14.9199 18.5019C14.3667 17.8848 14.4185 16.9365 15.0352 16.3838C15.6509 15.8311 16.5996 15.8809 17.1533 16.4981C18.0093 17.4531 19.229 18 20.5 18C21.771 18 22.9907 17.4531 23.8467 16.4981C24.3999 15.8809 25.3486 15.8311 25.9648 16.3838C26.5815 16.9365 26.6333 17.8848 26.0801 18.5019C24.6558 20.0898 22.6216 21 20.5 21ZM10.5 54C9.6714 54 9.00001 53.3281 9.00001 52.5V37.5C9.00001 36.6719 9.6714 36 10.5 36C11.3286 36 12 36.6719 12 37.5V52.5C12 53.3281 11.3286 54 10.5 54Z" fill="#A783FF"/>
<path d="M20.5 41.9999C19.9458 41.9999 19.437 41.6943 19.1763 41.206L11.1763 26.206C10.7866 25.4745 11.063 24.5663 11.794 24.1767C12.5264 23.7851 13.4341 24.0644 13.8237 24.7939L20.5 37.3124L27.1763 24.7939C27.5659 24.0634 28.4727 23.7851 29.2061 24.1767C29.9365 24.5663 30.2139 25.4745 29.8233 26.206L21.8238 41.206C21.563 41.6943 21.0542 41.9999 20.5 41.9999Z" fill="#A783FF"/>
<path d="M44.369 48H38.369V57H44.369V48Z" fill="#A783FF"/>
<path d="M56.127 35.6592L41.998 29.1387C41.5996 28.9531 41.1387 28.9531 40.7402 29.1387L26.6123 35.6592C25.8599 36.0049 25.5303 36.8955 25.8765 37.6484C26.2227 38.4014 27.1118 38.7324 27.8662 38.3838L29 37.8605V55.5C29 56.3281 29.6719 57 30.5 57H35.3691V46.5C35.3691 45.6719 36.041 45 36.8691 45H45.8691C46.6973 45 47.3691 45.6719 47.3691 46.5V57H52.2393C53.0674 57 53.7393 56.3281 53.7393 55.5V37.8606L54.8731 38.3838C55.0762 38.4776 55.2891 38.5215 55.499 38.5215C56.0664 38.5215 56.6104 38.1983 56.8623 37.6485C57.209 36.8955 56.8799 36.0049 56.127 35.6592Z" fill="#A783FF"/>
</svg>
