<svg width="54" height="54" viewBox="0 0 54 54" fill="none" xmlns="http://www.w3.org/2000/svg">
<path d="M53.2039 16.2138L36.4014 5.59222C36.1145 5.40556 35.7797 5.30621 35.4375 5.30621C35.0953 5.30621 34.7604 5.40556 34.4735 5.59222L28.3804 9.68152V1.77731C28.3817 1.46596 28.3008 1.1598 28.1461 0.889706C27.9914 0.619611 27.7682 0.395137 27.4991 0.23893C27.2301 0.082723 26.9246 0.000308453 26.6135 8.64157e-07C26.3024 -0.000306725 25.9968 0.0815035 25.7274 0.237178L7.15625 10.8587C6.88635 11.0147 6.66241 11.2393 6.50711 11.5098C6.35181 11.7802 6.27068 12.0869 6.27191 12.3989V32.1019L0.868593 35.7132C0.661543 35.8357 0.481634 35.9992 0.339868 36.1937C0.198102 36.3882 0.0974573 36.6096 0.0440882 36.8443C-0.00928093 37.079 -0.014253 37.3222 0.0294759 37.5589C0.0732048 37.7957 0.164716 38.021 0.298413 38.2211C0.432111 38.4212 0.605186 38.5919 0.807055 38.7228C1.00892 38.8537 1.23535 38.942 1.47247 38.9823C1.7096 39.0227 1.95246 39.0141 2.18619 38.9573C2.41991 38.9005 2.63961 38.7965 2.83183 38.6518L3.61889 38.1296V50.4595H2.04477C1.57568 50.4595 1.12581 50.646 0.79412 50.978C0.462428 51.31 0.276085 51.7602 0.276085 52.2297C0.276085 52.6992 0.462428 53.1495 0.79412 53.4815C1.12581 53.8135 1.57568 54 2.04477 54H51.3733C51.8424 54 52.2922 53.8135 52.6239 53.4815C52.9556 53.1495 53.142 52.6992 53.142 52.2297C53.142 51.7602 52.9556 51.31 52.6239 50.978C52.2922 50.646 51.8424 50.4595 51.3733 50.4595H50.4889V24.7907C50.4889 24.3212 50.3026 23.8709 49.9709 23.5389C49.6392 23.2069 49.1893 23.0204 48.7203 23.0204C48.2512 23.0204 47.8013 23.2069 47.4696 23.5389C47.1379 23.8709 46.9516 24.3212 46.9516 24.7907V50.4595H32.8021V38.1562L33.6246 38.6784C34.0209 38.9296 34.5008 39.0129 34.9585 38.91C35.4162 38.807 35.8144 38.5263 36.0653 38.1296C36.3163 37.7329 36.3995 37.2526 36.2967 36.7945C36.1939 36.3363 35.9134 35.9378 35.5171 35.6867L24.8431 28.942V16.8245C24.8425 16.6626 24.8186 16.5017 24.7723 16.3466L35.4552 9.1947L51.2848 19.2055C51.6812 19.4567 52.1611 19.54 52.6188 19.4371C53.0765 19.3342 53.4747 19.0535 53.7256 18.6567C53.9766 18.26 54.0598 17.7798 53.957 17.3216C53.8542 16.8635 53.5737 16.465 53.1773 16.2138H53.2039ZM29.2648 36.2974V50.4595H26.6117V40.723C26.6117 40.2535 26.4254 39.8033 26.0937 39.4713C25.762 39.1393 25.3121 38.9528 24.8431 38.9528H10.6936C10.2245 38.9528 9.77466 39.1393 9.44297 39.4713C9.11128 39.8033 8.92494 40.2535 8.92494 40.723V50.4595H7.15625V36.2974C7.15566 36.1355 7.13183 35.9745 7.08551 35.8194L17.7683 28.6676L29.2648 35.9433C29.2512 36.061 29.2512 36.1798 29.2648 36.2974Z" fill="#A783FF"/>
</svg>
