<svg width="57" height="54" viewBox="0 0 57 54" fill="none" xmlns="http://www.w3.org/2000/svg">
<path d="M43.2635 54C38.1996 54 33.7591 52.6112 31.3262 50.2414C31.2295 50.1444 31.132 50.0475 31.0297 49.9336C31.0295 49.9334 31.03 49.9338 31.0297 49.9336C30.4425 49.3028 30.029 48.6136 29.7865 47.8448C29.6635 47.4991 29.5882 47.1373 29.5538 46.7461V42.3111C32.3513 45.0881 37.2766 46.8238 43.255 46.8238C43.256 46.8238 43.257 46.8238 43.257 46.8238C43.2591 46.8238 43.26 46.8238 43.2611 46.8238C47.3417 46.8238 50.9342 46.017 53.6973 44.6247C53.7198 44.6134 53.7448 44.6041 53.7671 44.5927C53.9452 44.5018 54.1067 44.3999 54.2777 44.3042C55.3269 43.7174 56.2436 43.0443 57 42.2907V46.3224C56.9976 47.3896 56.6399 48.3912 55.9951 49.2983C53.9926 52.1111 49.1786 54 43.2635 54ZM29.5538 13.3733C32.8918 16.6829 38.581 17.8232 43.2647 17.8232C48.0082 17.8232 53.656 16.6251 57 13.2955V17.3322C57 17.3343 56.9988 17.3361 56.9988 17.3382C56.9988 21.7145 51.0924 25.0145 43.2611 25.0145C35.5269 25.0145 29.6837 21.7858 29.5538 17.4825V13.3733ZM57 36.6516C56.9999 36.6558 56.9976 36.6594 56.9976 36.6637C56.9976 36.9369 56.9745 37.2059 56.9293 37.4702C56.9186 37.5327 56.8951 37.5923 56.8819 37.6543C56.8397 37.8534 56.7963 38.0523 56.7292 38.2455C56.1134 40.0177 54.4718 41.5325 52.1355 42.6083C52.1235 42.614 52.1129 42.6203 52.1008 42.6259C51.9367 42.7009 51.7588 42.7667 51.588 42.8374C51.4076 42.9119 51.2339 42.991 51.0463 43.0606L51.0443 43.0612C48.8592 43.8708 46.1939 44.3342 43.258 44.3345C35.5256 44.3335 29.6837 41.1052 29.5539 36.8025V32.6495C32.3522 35.4284 37.2798 37.1656 43.2611 37.1656C49.2609 37.1656 54.2014 35.421 57 32.632L57 36.6516ZM43.2647 0C51.0887 0 56.9878 3.29577 56.9878 7.68607C56.9683 12.046 51.068 15.3338 43.2647 15.3338C35.4846 15.3338 29.7183 12.1943 29.5526 7.86838C29.5514 7.82706 29.5477 7.70795 29.5417 7.66662C29.5417 3.29577 35.4407 0 43.2647 0ZM43.2611 27.5038C49.2609 27.5038 54.2014 25.7592 57 22.9702V26.994C57 26.9961 56.9988 26.9979 56.9988 27C56.9988 31.3763 51.0924 34.6763 43.2611 34.6763C35.5269 34.6763 29.6837 31.4477 29.5538 27.1443V22.9876C32.3521 25.7666 37.2798 27.5038 43.2611 27.5038ZM13.3357 20.2875C20.9392 20.2875 26.6725 23.4818 26.6725 27.7275C26.6628 31.9652 20.9294 35.1613 13.3357 35.1613C7.71484 35.1613 0.011989 32.9369 1.24925e-05 27.7177C1.69425e-08 23.4818 5.73339 20.2875 13.3357 20.2875ZM13.3357 37.6506C17.8831 37.6506 23.4286 36.4731 26.6725 33.2956V37.1695C26.6463 41.3995 20.9266 44.5855 13.3454 44.5855C5.75326 44.5855 0.0262734 41.3995 0 37.1695V33.2956C3.25619 36.4952 8.77869 37.6506 13.3357 37.6506ZM13.3454 47.0748C19.1447 47.0748 23.9322 45.4006 26.6725 42.7156V46.5582C26.6616 50.8009 20.9294 54 13.3381 54C5.74679 54 0.0146212 50.8009 0.00365524 46.5613V46.5479H0V42.7126C2.74288 45.3992 7.53702 47.0748 13.3454 47.0748Z" fill="#A783FF"/>
</svg>
