<svg width="16" height="20" viewBox="0 0 16 20" fill="none" xmlns="http://www.w3.org/2000/svg">
<path d="M8 0C5.87827 0 3.84344 0.842852 2.34315 2.34314C0.842855 3.84342 0 5.87825 0 7.99997C0 13.4 7.05 19.4999 7.35 19.7599C7.53113 19.9149 7.76165 20 8 20C8.23835 20 8.46887 19.9149 8.65 19.7599C9 19.4999 16 13.4 16 7.99997C16 5.87825 15.1571 3.84342 13.6569 2.34314C12.1566 0.842852 10.1217 0 8 0ZM8 17.6499C5.87 15.6499 2 11.34 2 7.99997C2 6.40868 2.63214 4.88256 3.75736 3.75735C4.88258 2.63213 6.4087 1.99999 8 1.99999C9.5913 1.99999 11.1174 2.63213 12.2426 3.75735C13.3679 4.88256 14 6.40868 14 7.99997C14 11.34 10.13 15.6599 8 17.6499ZM8 3.99999C7.20887 3.99999 6.43552 4.23458 5.77772 4.67411C5.11992 5.11363 4.60723 5.73834 4.30448 6.46924C4.00173 7.20015 3.92252 8.00441 4.07686 8.78033C4.2312 9.55625 4.61216 10.269 5.17157 10.8284C5.73098 11.3878 6.44371 11.7688 7.21964 11.9231C7.99556 12.0774 8.79983 11.9982 9.53073 11.6955C10.2616 11.3927 10.8864 10.88 11.3259 10.2222C11.7654 9.56445 12 8.7911 12 7.99997C12 6.93911 11.5786 5.9217 10.8284 5.17156C10.0783 4.42141 9.06087 3.99999 8 3.99999ZM8 9.99997C7.60444 9.99997 7.21776 9.88267 6.88886 9.66291C6.55996 9.44315 6.30362 9.13079 6.15224 8.76534C6.00087 8.39989 5.96126 7.99776 6.03843 7.6098C6.1156 7.22183 6.30608 6.86547 6.58579 6.58577C6.86549 6.30606 7.22186 6.11558 7.60982 6.03841C7.99778 5.96124 8.39991 6.00085 8.76537 6.15222C9.13082 6.3036 9.44318 6.55994 9.66294 6.88884C9.8827 7.21773 10 7.60441 10 7.99997C10 8.53041 9.78929 9.03911 9.41421 9.41418C9.03914 9.78925 8.53043 9.99997 8 9.99997Z" fill="#1E1E1E"/>
</svg>
