<svg width="17" height="20" viewBox="0 0 17 20" fill="none" xmlns="http://www.w3.org/2000/svg">
<path d="M8.3335 0C6.21176 0 4.17693 0.842852 2.67664 2.34314C1.17635 3.84342 0.333496 5.87825 0.333496 7.99997C0.333496 13.4 7.3835 19.4999 7.6835 19.7599C7.86463 19.9149 8.09514 20 8.3335 20C8.57185 20 8.80236 19.9149 8.9835 19.7599C9.3335 19.4999 16.3335 13.4 16.3335 7.99997C16.3335 5.87825 15.4906 3.84342 13.9904 2.34314C12.4901 0.842852 10.4552 0 8.3335 0ZM8.3335 17.6499C6.2035 15.6499 2.3335 11.34 2.3335 7.99997C2.3335 6.40868 2.96564 4.88256 4.09086 3.75735C5.21607 2.63213 6.7422 1.99999 8.3335 1.99999C9.9248 1.99999 11.4509 2.63213 12.5761 3.75735C13.7014 4.88256 14.3335 6.40868 14.3335 7.99997C14.3335 11.34 10.4635 15.6599 8.3335 17.6499ZM8.3335 3.99999C7.54237 3.99999 6.76901 4.23458 6.11122 4.67411C5.45342 5.11363 4.94073 5.73834 4.63798 6.46924C4.33523 7.20015 4.25601 8.00441 4.41035 8.78033C4.5647 9.55625 4.94566 10.269 5.50507 10.8284C6.06448 11.3878 6.77721 11.7688 7.55313 11.9231C8.32906 12.0774 9.13333 11.9982 9.86423 11.6955C10.5951 11.3927 11.2198 10.88 11.6594 10.2222C12.0989 9.56445 12.3335 8.7911 12.3335 7.99997C12.3335 6.93911 11.9121 5.9217 11.1619 5.17156C10.4118 4.42141 9.39436 3.99999 8.3335 3.99999ZM8.3335 9.99997C7.93793 9.99997 7.55125 9.88267 7.22236 9.66291C6.89346 9.44315 6.63711 9.13079 6.48574 8.76534C6.33436 8.39989 6.29475 7.99776 6.37193 7.6098C6.4491 7.22183 6.63958 6.86547 6.91928 6.58577C7.19899 6.30606 7.55535 6.11558 7.94332 6.03841C8.33128 5.96124 8.73341 6.00085 9.09886 6.15222C9.46431 6.3036 9.77667 6.55994 9.99644 6.88884C10.2162 7.21773 10.3335 7.60441 10.3335 7.99997C10.3335 8.53041 10.1228 9.03911 9.74771 9.41418C9.37264 9.78925 8.86393 9.99997 8.3335 9.99997Z" fill="#1B86DE"/>
</svg>
