<svg width="20" height="20" viewBox="0 0 20 20" fill="none" xmlns="http://www.w3.org/2000/svg">
<g clip-path="url(#clip0_260_1044)">
<path d="M16.875 18.3333C16.6206 18.3431 16.3672 18.2957 16.1335 18.1948C15.8997 18.0939 15.6915 17.9419 15.5242 17.75C17.3043 15.8844 18.3085 13.4118 18.3333 10.8333V10.2325L16.6667 9.6775V6.66667C16.6667 6.00363 16.4033 5.36774 15.9344 4.8989C15.4656 4.43006 14.8297 4.16667 14.1667 4.16667H13.3333V2.5C13.3333 1.83696 13.0699 1.20107 12.6011 0.732233C12.1323 0.263392 11.4964 0 10.8333 0L9.16667 0C8.50362 0 7.86774 0.263392 7.3989 0.732233C6.93006 1.20107 6.66667 1.83696 6.66667 2.5V4.16667H5.83333C5.17029 4.16667 4.53441 4.43006 4.06557 4.8989C3.59673 5.36774 3.33333 6.00363 3.33333 6.66667V9.6775L1.66667 10.2325V10.8333C1.69283 13.4125 2.69889 15.8852 4.48083 17.75C4.31286 17.9425 4.10385 18.0948 3.8692 18.1957C3.63455 18.2967 3.38024 18.3437 3.125 18.3333C2.2175 18.3333 1.66667 17.755 1.66667 17.5H0C0 18.855 1.43167 20 3.125 20C3.96416 20.0064 4.7776 19.7106 5.41667 19.1667C6.05985 19.7018 6.86956 19.9957 7.70623 19.9979C8.5429 20 9.3541 19.7102 10 19.1783C10.6459 19.7102 11.4571 20 12.2938 19.9979C13.1304 19.9957 13.9402 19.7018 14.5833 19.1667C15.2222 19.7104 16.0353 20.0062 16.8742 20C18.5683 20 20 18.855 20 17.5H18.3333C18.3333 17.7867 17.765 18.3333 16.875 18.3333ZM8.33333 2.5C8.33333 2.27899 8.42113 2.06702 8.57741 1.91074C8.73369 1.75446 8.94565 1.66667 9.16667 1.66667H10.8333C11.0543 1.66667 11.2663 1.75446 11.4226 1.91074C11.5789 2.06702 11.6667 2.27899 11.6667 2.5V4.16667H8.33333V2.5ZM5 6.66667C5 6.44565 5.0878 6.23369 5.24408 6.07741C5.40036 5.92113 5.61232 5.83333 5.83333 5.83333H14.1667C14.3877 5.83333 14.5996 5.92113 14.7559 6.07741C14.9122 6.23369 15 6.44565 15 6.66667V9.12167L10 7.455L5 9.12167V6.66667ZM7.70833 18.3333C6.80083 18.3333 6.25 17.755 6.25 17.5V17.1183L5.96333 16.8683C4.47082 15.4249 3.54612 13.4936 3.3575 11.4258L9.16667 9.48917V17.5C9.16667 17.7867 8.59833 18.3333 7.70833 18.3333ZM12.2917 18.3333C11.3842 18.3333 10.8333 17.755 10.8333 17.5V9.48917L16.645 11.4267C16.4567 13.4935 15.5329 15.4241 14.0417 16.8675L13.75 17.1175V17.5C13.75 17.7867 13.1817 18.3333 12.2917 18.3333Z" fill="#1B86DE"/>
</g>
<defs>
<clipPath id="clip0_260_1044">
<rect width="20" height="20" fill="white"/>
</clipPath>
</defs>
</svg>
