<svg width="20" height="20" viewBox="0 0 20 20" fill="none" xmlns="http://www.w3.org/2000/svg">
<g clip-path="url(#clip0_260_1040)">
<path d="M19.9666 9.58333C19.8525 8.99149 19.5341 8.45857 19.0669 8.07775C18.5997 7.69693 18.0135 7.49243 17.4108 7.5H14.6608L11.205 1.3025C10.9898 0.908244 10.6725 0.579225 10.2862 0.350027C9.89995 0.120829 9.45909 -8.30872e-05 9.00996 4.28364e-08H5.89079L8.42246 7.5H5.82079L4.90413 6.11917C4.67677 5.77521 4.36771 5.49296 4.00459 5.29766C3.64146 5.10236 3.2356 5.00009 2.82329 5H0.0224609L1.86663 10L0.0332943 15H2.83329C3.24637 15.0002 3.65302 14.8977 4.01667 14.7018C4.38033 14.5058 4.68958 14.2226 4.91663 13.8775L5.82329 12.5H8.42246L5.89079 20H9.00996C9.45794 20.0001 9.89771 19.8797 10.2833 19.6516C10.6688 19.4235 10.986 19.096 11.2016 18.7033L14.6566 12.5H17.5C17.8637 12.5002 18.223 12.4211 18.553 12.2682C18.883 12.1152 19.1756 11.8921 19.4105 11.6144C19.6453 11.3367 19.8168 11.0111 19.9128 10.6603C20.0089 10.3095 20.0272 9.94195 19.9666 9.58333ZM18.1333 10.5367C18.0555 10.6291 17.9586 10.7034 17.8493 10.7547C17.7399 10.8059 17.6207 10.8327 17.5 10.8333H13.6766L9.74163 17.8992C9.66992 18.0306 9.56413 18.1403 9.43538 18.2167C9.30663 18.2931 9.15967 18.3334 9.00996 18.3333H8.21163L10.7441 10.8333H4.92329L3.52746 12.96C3.45155 13.0747 3.34843 13.1688 3.22731 13.2339C3.10618 13.2991 2.97082 13.3332 2.83329 13.3333H2.42163L3.64246 10L2.41663 6.66667H2.82663C2.96416 6.66678 3.09952 6.70093 3.22064 6.76608C3.34176 6.83122 3.44488 6.92532 3.52079 7.04L4.92579 9.16667H10.7441L8.21163 1.66667H9.00996C9.16091 1.66669 9.30902 1.70771 9.43848 1.78535C9.56793 1.86299 9.67386 1.97434 9.74496 2.1075L13.6766 9.16667H17.4108C17.6184 9.15899 17.8224 9.2232 17.9882 9.34845C18.1539 9.47371 18.2714 9.65233 18.3208 9.85417C18.3423 9.97492 18.3368 10.0989 18.3048 10.2173C18.2729 10.3357 18.2151 10.4456 18.1358 10.5392L18.1333 10.5367Z" fill="#1B86DE"/>
</g>
<defs>
<clipPath id="clip0_260_1040">
<rect width="20" height="20" fill="white"/>
</clipPath>
</defs>
</svg>
