<svg width="21" height="20" viewBox="0 0 21 20" fill="none" xmlns="http://www.w3.org/2000/svg">
<g clip-path="url(#clip0_260_1042)">
<path d="M19.833 18.3333C19.4872 18.3333 19.0664 18.1608 18.6205 17.9783C18.0722 17.7541 17.4505 17.4999 16.7772 17.4999C16.1039 17.4999 15.4822 17.7541 14.9339 17.9783C14.488 18.1608 14.0664 18.3333 13.7214 18.3333C13.3764 18.3333 12.9547 18.1608 12.5089 17.9783C11.9605 17.7541 11.3389 17.4999 10.6655 17.4999C9.99219 17.4999 9.37053 17.7541 8.82219 17.9783C8.49886 18.1108 8.18886 18.2374 7.91136 18.2974L11.038 11.2383L17.0264 13.9683C17.3522 14.1174 17.6989 14.1916 18.0455 14.1916C18.4322 14.1916 18.818 14.0991 19.1747 13.9158C19.8539 13.5666 20.328 12.9333 20.4747 12.1799C21.398 7.43409 19.1414 2.79576 14.9855 0.900757C10.7072 -1.05008 5.59386 0.29659 2.82636 4.10492C2.36886 4.73492 2.21969 5.52992 2.41886 6.28659C2.61303 7.02492 3.11636 7.62659 3.80053 7.93826L9.52136 10.5466L6.25553 17.9208C5.74303 17.7133 5.17053 17.4999 4.55469 17.4999C3.88136 17.4999 3.25969 17.7541 2.71136 17.9783C2.26553 18.1608 1.84469 18.3333 1.49886 18.3333C1.03886 18.3333 0.665527 18.7066 0.665527 19.1666C0.665527 19.6266 1.03886 19.9999 1.49886 19.9999C2.17219 19.9999 2.79386 19.7458 3.34219 19.5216C3.78803 19.3391 4.20886 19.1666 4.55469 19.1666C4.90053 19.1666 5.32136 19.3391 5.76719 19.5216C6.31553 19.7458 6.93719 19.9999 7.61053 19.9999C8.28386 19.9999 8.90553 19.7458 9.45386 19.5216C9.89969 19.3391 10.3205 19.1666 10.6664 19.1666C11.0122 19.1666 11.433 19.3391 11.8789 19.5216C12.4272 19.7458 13.0489 19.9999 13.7222 19.9999C14.3955 19.9999 15.0172 19.7458 15.5655 19.5216C16.0114 19.3391 16.433 19.1666 16.778 19.1666C17.123 19.1666 17.5447 19.3391 17.9905 19.5216C18.5389 19.7458 19.1605 19.9999 19.8339 19.9999C20.2939 19.9999 20.6672 19.6266 20.6672 19.1666C20.6672 18.7066 20.293 18.3333 19.833 18.3333ZM4.03053 5.86159C3.95969 5.59159 4.01219 5.30826 4.17469 5.08409C6.44053 1.96659 10.7914 0.81909 14.2947 2.41659C17.7464 3.99076 19.6155 7.87409 18.8397 11.8608C18.773 12.2016 18.5439 12.3649 18.413 12.4324C18.193 12.5458 17.9414 12.5533 17.7189 12.4508L4.49219 6.42242C4.18136 6.28076 4.06969 6.00992 4.03053 5.86159Z" fill="#1B86DE"/>
</g>
<defs>
<clipPath id="clip0_260_1042">
<rect width="20" height="20" fill="white" transform="translate(0.666504)"/>
</clipPath>
</defs>
</svg>
