<svg width="20" height="20" viewBox="0 0 20 20" fill="none" xmlns="http://www.w3.org/2000/svg">
<path d="M7.778 13.2655L4.51217 9.99968C4.35589 9.84345 4.14397 9.75569 3.923 9.75569C3.70203 9.75569 3.49011 9.84345 3.33383 9.99968C3.17761 10.156 3.08984 10.3679 3.08984 10.5888C3.08984 10.8098 3.17761 11.0217 3.33383 11.178L6.59967 14.4438C6.75444 14.5987 6.9382 14.7215 7.14045 14.8053C7.34271 14.8891 7.55949 14.9322 7.77842 14.9322C7.99734 14.9322 8.21412 14.8891 8.41638 14.8053C8.61863 14.7215 8.80239 14.5987 8.95717 14.4438L16.6672 6.73385C16.8234 6.57757 16.9112 6.36565 16.9112 6.14468C16.9112 5.92371 16.8234 5.71178 16.6672 5.55551C16.5109 5.39929 16.299 5.31152 16.078 5.31152C15.857 5.31152 15.6451 5.39929 15.4888 5.55551L7.778 13.2655Z" fill="#1B86DE"/>
</svg>
