<svg width="47" height="45" viewBox="0 0 47 45" fill="none" xmlns="http://www.w3.org/2000/svg">
<path d="M46.8774 17.0051C46.7271 16.5398 46.4431 16.1289 46.0608 15.8237C45.6785 15.5186 45.2147 15.3326 44.7273 15.289L31.163 14.0582L25.7995 1.51311C25.6068 1.06385 25.2864 0.681003 24.8779 0.41203C24.4695 0.143056 23.9911 -0.000208126 23.5019 2.26936e-07C23.0128 0.00020858 22.5345 0.143881 22.1263 0.413202C21.7181 0.682523 21.398 1.06565 21.2056 1.51507L15.8422 14.0582L2.27586 15.289C1.78803 15.3323 1.32372 15.518 0.940711 15.823C0.557706 16.128 0.272924 16.5388 0.121815 17.0043C-0.0292942 17.4699 -0.0400572 17.9695 0.0908657 18.4411C0.221789 18.9127 0.488615 19.3354 0.858132 19.6566L11.1112 28.6422L8.08775 41.9504C7.97904 42.4268 8.01272 42.9246 8.1846 43.3821C8.35648 43.8395 8.659 44.2365 9.05461 44.5236C9.45022 44.8108 9.92152 44.9756 10.41 44.9975C10.8985 45.0194 11.3827 44.8975 11.8024 44.6469L23.5026 37.6591L35.1988 44.6469C35.6187 44.8971 36.1029 45.0188 36.5913 44.9967C37.0797 44.9747 37.551 44.81 37.9466 44.5229C38.3422 44.2359 38.6449 43.8391 38.8171 43.3819C38.9893 42.9246 39.0235 42.4269 38.9154 41.9504L35.892 28.6422L46.145 19.6585C46.8989 18.9991 47.1868 17.9581 46.8774 17.0051Z" fill="#FFC107"/>
</svg>
