<svg width="60" height="44" viewBox="0 0 60 44" fill="none" xmlns="http://www.w3.org/2000/svg">
<path fill-rule="evenodd" clip-rule="evenodd" d="M0.997003 26C0.447004 26 1.61304e-06 25.549 1.6613e-06 24.997L3.75892e-06 1.00299C3.80726e-06 0.449992 0.450005 -5.20603e-06 1.002 -5.15777e-06L24.972 -3.06225e-06C25.2379 0.000527204 25.4927 0.10637 25.6806 0.294354C25.8686 0.482339 25.9745 0.737145 25.975 1.003L26 26C25.454 36.029 17.158 44 7 44L6.997 44C6.447 44 6 43.544 6 43.005L6 34.995C6.00132 34.7312 6.10685 34.4785 6.29359 34.2922C6.48034 34.1058 6.73317 34.0008 6.997 34L7 34C9.21386 34 11.3501 33.184 13.0002 31.7082C14.6504 30.2323 15.6988 28.2001 15.945 26L0.997003 26ZM34.997 26C34.447 26 34 25.549 34 24.997L34 1.003C34 0.449995 34.45 -2.23365e-06 35.002 -2.18539e-06L58.972 -8.98706e-08C59.2379 0.000530176 59.4927 0.106373 59.6806 0.294357C59.8686 0.482342 59.9745 0.737148 59.975 1.003L60 26C59.454 36.029 51.158 44 41 44L40.997 44C40.447 44 40 43.544 40 43.005L40 34.995C40.0013 34.7312 40.1068 34.4785 40.2936 34.2922C40.4803 34.1058 40.7332 34.0008 40.997 34L41 34C43.2139 34 45.3501 33.184 47.0002 31.7082C48.6504 30.2324 49.6988 28.2001 49.945 26L34.997 26Z" fill="#A783FF"/>
</svg>
