<svg width="31" height="32" viewBox="0 0 31 32" fill="none" xmlns="http://www.w3.org/2000/svg">
<g clip-path="url(#clip0_311_389)">
<path fill-rule="evenodd" clip-rule="evenodd" d="M26.5062 5.00533C23.6051 2.10167 19.7482 0.501292 15.6394 0.5C7.17252 0.5 0.281479 7.38975 0.277604 15.8605C0.276313 18.5678 0.984146 21.2106 2.32877 23.5407L0.148438 31.5L8.2911 29.3636C10.5347 30.5881 13.0612 31.2326 15.6316 31.2339H15.6381C24.1037 31.2339 30.996 24.3429 30.9999 15.8721C31.0025 11.7685 29.406 7.90771 26.5062 5.00533ZM15.6394 28.639H15.6342C13.3428 28.639 11.0966 28.0228 9.13585 26.859L8.66956 26.5826L3.83744 27.8497L5.12781 23.1377L4.82427 22.6547C3.54552 20.6216 2.87127 18.272 2.87256 15.8605C2.87515 8.82092 8.60369 3.09367 15.6459 3.09367C19.0559 3.09367 22.2618 4.42408 24.672 6.83692C27.0823 9.25104 28.4088 12.4583 28.4075 15.8695C28.4036 22.9117 22.6764 28.639 15.6394 28.639ZM22.6428 19.0767C22.2592 18.8843 20.3721 17.9556 20.0194 17.8277C19.6681 17.6998 19.4124 17.6352 19.1553 18.0189C18.8983 18.4025 18.1646 19.2679 17.9399 19.525C17.7164 19.7807 17.4916 19.813 17.108 19.6205C16.7244 19.4281 15.487 19.0238 14.0209 17.7153C12.8804 16.6975 12.1093 15.4407 11.8858 15.0558C11.6624 14.6709 11.8626 14.4642 12.0537 14.273C12.2268 14.1012 12.4374 13.8248 12.6298 13.6001C12.8236 13.3779 12.8869 13.2177 13.016 12.9607C13.1439 12.705 13.0806 12.4802 12.9837 12.2878C12.8869 12.0966 12.1196 10.2069 11.8006 9.43833C11.4893 8.68917 11.1728 8.79121 10.9364 8.77958C10.713 8.76796 10.4572 8.76667 10.2002 8.76667C9.94444 8.76667 9.52852 8.86225 9.17719 9.24717C8.82585 9.63208 7.83385 10.5608 7.83385 12.4492C7.83385 14.3389 9.20948 16.164 9.40065 16.4198C9.59181 16.6755 12.1067 20.5531 15.9571 22.2155C16.8729 22.6108 17.5885 22.8471 18.1452 23.0241C19.0649 23.316 19.9019 23.2747 20.5632 23.1765C21.3008 23.0667 22.834 22.2478 23.1543 21.3514C23.4746 20.455 23.4746 19.6851 23.3778 19.5262C23.2822 19.3648 23.0264 19.2692 22.6428 19.0767Z" fill="#1B86DE"/>
</g>
<defs>
<clipPath id="clip0_311_389">
<rect width="30.8515" height="31" fill="white" transform="translate(0.148438 0.5)"/>
</clipPath>
</defs>
</svg>
