<svg width="50" height="50" viewBox="0 0 50 50" fill="none" xmlns="http://www.w3.org/2000/svg">
<g clip-path="url(#clip0_316_508)">
<path d="M49.577 44.4396C50.4437 45.9334 49.9354 47.8459 48.4437 48.7105C47.0208 49.5355 45.3999 49.9709 43.7499 49.9709C41.702 49.9709 39.6312 49.3021 37.9229 48.0875C37.6541 47.8959 37.3458 47.8959 37.077 48.0875C33.6604 50.5167 28.8395 50.5167 25.4229 48.0875C25.1541 47.8959 24.8458 47.8959 24.577 48.0875C21.1604 50.5167 16.3395 50.5167 12.9229 48.0875C12.6541 47.8959 12.3458 47.8959 12.077 48.0875C8.9937 50.2813 4.74578 50.5584 1.5562 48.7084C0.0645315 47.8417 -0.443802 45.9313 0.422865 44.4375C1.28953 42.9438 3.20203 42.4355 4.6937 43.3042C5.81661 43.9563 7.32703 43.798 8.4562 42.9938C10.877 41.2729 14.127 41.275 16.5458 42.9938C17.8458 43.9167 19.6562 43.9167 20.9562 42.9938C23.377 41.2729 26.627 41.275 29.0458 42.9938C30.3458 43.9167 32.1562 43.9167 33.4562 42.9938C35.877 41.2729 39.127 41.275 41.5458 42.9938C42.6749 43.7959 44.1854 43.9542 45.3083 43.3042C46.7999 42.4334 48.7145 42.9459 49.5791 44.4375L49.577 44.4396ZM8.33328 34.373L8.35203 11.4396C8.35828 5.1542 13.477 0.0166992 19.7624 -0.00830078V3.25534e-05C19.7624 3.25534e-05 19.7812 3.25534e-05 19.7916 3.25534e-05C21.5166 3.25534e-05 22.9166 1.40003 22.9166 3.12503C22.9166 4.85003 21.5166 6.25003 19.7916 6.25003C19.7458 6.25003 19.6999 6.25003 19.652 6.24587C16.827 6.35837 14.6041 8.65003 14.602 11.4438V12.498H35.4354V11.4375C35.4416 5.1542 40.5604 0.0166992 46.8458 -0.00830078V3.25534e-05C46.8458 3.25534e-05 46.8645 3.25534e-05 46.8749 3.25534e-05C48.5999 3.25534e-05 49.9999 1.40003 49.9999 3.12503C49.9999 4.85003 48.5999 6.25003 46.8749 6.25003C46.8291 6.25003 46.7833 6.25003 46.7354 6.24587C43.9104 6.35837 41.6874 8.65003 41.6854 11.4438L41.6666 34.3771C41.6666 36.1021 40.2666 37.5 38.5416 37.5C36.8166 37.5 35.4166 36.098 35.4166 34.373V31.25H14.5854V34.3771C14.5812 36.1021 13.1812 37.5 11.4583 37.5C9.73328 37.5 8.33328 36.098 8.33328 34.373ZM14.5916 25H35.4249L35.4312 18.75H14.5958L14.5895 25H14.5916Z" fill="#1B86DE"/>
</g>
<defs>
<clipPath id="clip0_316_508">
<rect width="50" height="50" fill="white"/>
</clipPath>
</defs>
</svg>
