<svg width="51" height="50" viewBox="0 0 51 50" fill="none" xmlns="http://www.w3.org/2000/svg">
<g clip-path="url(#clip0_316_512)">
<path d="M0.5 13.5417C0.5 10.6646 2.83125 8.33333 5.70833 8.33333C8.58542 8.33333 10.9167 10.6646 10.9167 13.5417C10.9167 16.4187 8.58542 18.75 5.70833 18.75C2.83125 18.75 0.5 16.4187 0.5 13.5417ZM10.9167 28.125C10.9167 25.2479 8.58542 22.9167 5.70833 22.9167C2.83125 22.9167 0.5 25.2479 0.5 28.125V36.4583C0.5 39.3354 2.83125 41.6667 5.70833 41.6667H13V50H19.25V35.4167H10.9167V28.125ZM45.2917 18.75C48.1687 18.75 50.5 16.4187 50.5 13.5417C50.5 10.6646 48.1687 8.33333 45.2917 8.33333C42.4146 8.33333 40.0833 10.6646 40.0833 13.5417C40.0833 16.4187 42.4146 18.75 45.2917 18.75ZM45.2917 22.9167C42.4146 22.9167 40.0833 25.2479 40.0833 28.125V35.4167H31.75V50H38V41.6667H45.2917C48.1687 41.6667 50.5 39.3354 50.5 36.4583V28.125C50.5 25.2479 48.1687 22.9167 45.2917 22.9167ZM35.9167 25H32.7917V19.8542C32.7917 16.9437 30.4312 14.5833 27.5208 14.5833H23.4792C20.5687 14.5833 18.2083 16.9437 18.2083 19.8542V25H15.0833V31.25H35.9167V25ZM42.1667 50H50.5V43.75H42.1667V50ZM0.5 50H8.83333V43.75H0.5V50ZM25.5 10.4167C28.3771 10.4167 30.7083 8.08542 30.7083 5.20833C30.7083 2.33125 28.3771 0 25.5 0C22.6229 0 20.2917 2.33125 20.2917 5.20833C20.2917 8.08542 22.6229 10.4167 25.5 10.4167Z" fill="#1B86DE"/>
</g>
<defs>
<clipPath id="clip0_316_512">
<rect width="50" height="50" fill="white" transform="translate(0.5)"/>
</clipPath>
</defs>
</svg>
