<svg width="50" height="50" viewBox="0 0 50 50" fill="none" xmlns="http://www.w3.org/2000/svg">
<path d="M44.5875 37.5C47.5729 37.5 50 35.0708 50 32.0875V29.1667C50 16.0854 39.8937 5.3375 27.0833 4.27292V2.08333C27.0833 0.933333 26.15 0 25 0C23.85 0 22.9167 0.933333 22.9167 2.08333V4.27292C10.1062 5.3375 0 16.0854 0 29.1667V32.0875C0 35.0729 2.42917 37.5 5.4125 37.5H22.9167V41.6667H2.08333C0.933333 41.6667 0 42.6 0 43.75C0 44.9 0.933333 45.8333 2.08333 45.8333H47.9167C49.0667 45.8333 50 44.9 50 43.75C50 42.6 49.0667 41.6667 47.9167 41.6667H27.0833V37.5H44.5875Z" fill="#1B86DE"/>
</svg>
