<svg width="51" height="50" viewBox="0 0 51 50" fill="none" xmlns="http://www.w3.org/2000/svg">
<g clip-path="url(#clip0_316_520)">
<path d="M19.25 32.2917C19.25 34.0146 17.8479 35.4167 16.125 35.4167C14.4021 35.4167 13 34.0146 13 32.2917C13 30.5687 14.4021 29.1667 16.125 29.1667C17.8479 29.1667 19.25 30.5687 19.25 32.2917ZM50.5 36.8062C50.5 42.0354 46.4937 46.4208 41.125 47.5958V50H36.9583V47.9167H16.125C15.4167 47.9167 14.725 47.8521 14.0417 47.7604V50H9.875V46.6042C4.3625 44.1875 0.5 38.6854 0.5 32.2917C0.5 26.7083 3.45208 21.8146 7.86875 19.05L5.2125 10.4167H0.5V6.25H15.0833V10.4167H9.57083L11.6937 17.3167C13.1 16.9 14.5854 16.6667 16.125 16.6667C21.2042 16.6667 23.3729 17.5312 28.1229 19.4271C29.6312 20.0292 31.4604 20.7563 33.7625 21.6104C36.2458 13.0271 36.9604 6.11458 36.9687 6.04167L37.1583 4.16667H45.0521L46.2687 0H50.5L48.3396 8.33333H40.8812C40.4958 11.0833 39.5667 16.5812 37.6833 23.0208C38.6417 23.3562 39.6437 23.7 40.7437 24.0667C47.3458 26.7042 50.5 30.8562 50.5 36.8062ZM29.6667 30.2083H23.0771C22.1729 27.2062 19.4167 25 16.125 25C12.1042 25 8.83333 28.2708 8.83333 32.2917C8.83333 36.3125 12.1042 39.5833 16.125 39.5833C19.4167 39.5833 22.1729 37.3771 23.0771 34.375H29.6667V30.2083Z" fill="#1B86DE"/>
</g>
<defs>
<clipPath id="clip0_316_520">
<rect width="50" height="50" fill="white" transform="translate(0.5)"/>
</clipPath>
</defs>
</svg>
