<svg width="51" height="50" viewBox="0 0 51 50" fill="none" xmlns="http://www.w3.org/2000/svg">
<g clip-path="url(#clip0_316_537)">
<path d="M15.0833 43.7502V50.0002H10.9167V43.7502H4.66667V50.0002H0.5V31.2502H4.66667V39.5835H10.9167C12.0217 39.5835 13.0815 40.0225 13.8629 40.8039C14.6443 41.5853 15.0833 42.6451 15.0833 43.7502ZM46.3333 39.5835H40.0833C38.9783 39.5835 37.9185 40.0225 37.1371 40.8039C36.3557 41.5853 35.9167 42.6451 35.9167 43.7502V50.0002H40.0833V43.7502H46.3333V50.0002H50.5V31.2502H46.3333V39.5835ZM50.5 19.8877V27.0835H27.5833V50.0002H23.4167V27.0835H0.5V19.8877C0.501967 18.9028 0.735485 17.9322 1.1817 17.0543C1.62792 16.1763 2.27433 15.4156 3.06875 14.8335L21.8187 1.19809C22.8872 0.420712 24.1745 0.00195313 25.4958 0.00195312C26.8172 0.00195312 28.1045 0.420712 29.1729 1.19809L47.9229 14.8335C48.7189 15.4147 49.3669 16.175 49.8146 17.0531C50.2623 17.9311 50.4971 18.9021 50.5 19.8877ZM42.1667 20.2252C42.169 18.9948 41.8065 17.7913 41.125 16.7668L25.5 0.260587L9.875 16.7668C9.19352 17.7913 8.83102 18.9948 8.83333 20.2252V22.9168H13V20.2252C13 19.8652 13.0933 19.5113 13.2708 19.1981L23.4167 8.50642V22.9168H27.5833V8.50642L37.7292 19.1981C37.9067 19.5113 38 19.8652 38 20.2252V22.9168H42.1667V20.2252Z" fill="#1B86DE"/>
</g>
<defs>
<clipPath id="clip0_316_537">
<rect width="50" height="50" fill="white" transform="translate(0.5)"/>
</clipPath>
</defs>
</svg>
