<svg width="46" height="47" viewBox="0 0 46 47" fill="none" xmlns="http://www.w3.org/2000/svg">
<path d="M35.282 8.131C34.7361 8.131 34.2025 8.29639 33.7486 8.60626C33.2947 8.91612 32.941 9.35654 32.7321 9.87183C32.5232 10.3871 32.4685 10.9541 32.575 11.5012C32.6815 12.0482 32.9444 12.5507 33.3304 12.945C33.7164 13.3394 34.2082 13.608 34.7436 13.7168C35.2789 13.8256 35.8339 13.7698 36.3382 13.5563C36.8425 13.3429 37.2736 12.9815 37.5769 12.5177C37.8801 12.054 38.042 11.5087 38.042 10.951C38.042 10.2031 37.7512 9.48581 37.2336 8.95696C36.716 8.42811 36.014 8.131 35.282 8.131ZM45.862 13.818C45.8173 11.8682 45.4599 9.9391 44.804 8.1075C44.2192 6.54036 43.309 5.1213 42.136 3.948C40.9971 2.74345 39.605 1.81931 38.065 1.2455C36.2771 0.554978 34.387 0.181443 32.476 0.141C30.038 -1.31316e-07 29.256 0 23 0C16.744 0 15.962 -1.31316e-07 13.524 0.141C11.6131 0.181443 9.72289 0.554978 7.935 1.2455C6.39786 1.82512 5.00695 2.74847 3.864 3.948C2.68508 5.11167 1.78061 6.53403 1.219 8.1075C0.54317 9.93426 0.177583 11.8655 0.138 13.818C-1.28523e-07 16.309 0 17.108 0 23.5C0 29.892 -1.28523e-07 30.691 0.138 33.182C0.177583 35.1345 0.54317 37.0657 1.219 38.8925C1.78061 40.466 2.68508 41.8883 3.864 43.052C5.00695 44.2515 6.39786 45.1749 7.935 45.7545C9.72289 46.445 11.6131 46.8186 13.524 46.859C15.962 47 16.744 47 23 47C29.256 47 30.038 47 32.476 46.859C34.387 46.8186 36.2771 46.445 38.065 45.7545C39.605 45.1807 40.9971 44.2565 42.136 43.052C43.3142 41.8831 44.2252 40.4628 44.804 38.8925C45.4599 37.0609 45.8173 35.1318 45.862 33.182C45.862 30.691 46 29.892 46 23.5C46 17.108 46 16.309 45.862 13.818ZM41.722 32.9C41.7053 34.3917 41.4408 35.8697 40.94 37.271C40.5728 38.2937 39.9829 39.2178 39.215 39.9735C38.469 40.7502 37.5664 41.3516 36.57 41.736C35.1985 42.2477 33.752 42.5179 32.292 42.535C29.992 42.6525 29.141 42.676 23.092 42.676C17.043 42.676 16.192 42.676 13.892 42.535C12.376 42.564 10.8666 42.3255 9.43 41.83C8.4773 41.426 7.61612 40.826 6.9 40.0675C6.1366 39.3126 5.55414 38.3877 5.198 37.365C4.63647 35.9436 4.32502 34.4321 4.278 32.9C4.278 30.55 4.14 29.6805 4.14 23.5C4.14 17.3195 4.14 16.45 4.278 14.1C4.28831 12.575 4.56079 11.0637 5.083 9.635C5.48791 8.64309 6.10941 7.7589 6.9 7.05C7.59877 6.24199 8.46236 5.60027 9.43 5.17C10.832 4.6531 12.3096 4.38294 13.8 4.371C16.1 4.371 16.951 4.23 23 4.23C29.049 4.23 29.9 4.23 32.2 4.371C33.66 4.38811 35.1065 4.65828 36.478 5.17C37.5232 5.56633 38.4613 6.21069 39.215 7.05C39.9687 7.77187 40.5576 8.65442 40.94 9.635C41.4512 11.066 41.7158 12.5767 41.722 14.1C41.837 16.45 41.86 17.3195 41.86 23.5C41.86 29.6805 41.837 30.55 41.722 32.9ZM23 11.4445C20.6674 11.4491 18.3884 12.1601 16.4511 13.4876C14.5138 14.8151 13.0051 16.6996 12.1156 18.9028C11.226 21.1061 10.9957 23.5293 11.4535 25.8663C11.9114 28.2033 13.0369 30.3492 14.688 32.0328C16.339 33.7164 18.4414 34.8623 20.7296 35.3255C23.0177 35.7888 25.3889 35.5487 27.5436 34.6356C29.6982 33.7224 31.5396 32.1772 32.8351 30.1952C34.1306 28.2132 34.822 25.8834 34.822 23.5C34.825 21.914 34.5212 20.343 33.9279 18.8774C33.3345 17.4119 32.4635 16.0806 31.3648 14.9602C30.2661 13.8398 28.9615 12.9524 27.5259 12.3491C26.0904 11.7457 24.5522 11.4383 23 11.4445ZM23 31.3255C21.4852 31.3255 20.0044 30.8665 18.7449 30.0067C17.4854 29.1468 16.5037 27.9246 15.924 26.4947C15.3443 25.0648 15.1926 23.4913 15.4882 21.9733C15.7837 20.4553 16.5131 19.061 17.5843 17.9665C18.6554 16.8721 20.0201 16.1268 21.5058 15.8249C22.9915 15.5229 24.5315 15.6779 25.931 16.2702C27.3305 16.8625 28.5266 17.8655 29.3682 19.1524C30.2098 20.4393 30.659 21.9523 30.659 23.5C30.659 24.5277 30.4609 25.5453 30.076 26.4947C29.6911 27.4441 29.1269 28.3068 28.4157 29.0335C27.7045 29.7601 26.8602 30.3365 25.931 30.7298C25.0017 31.1231 24.0058 31.3255 23 31.3255Z" fill="#1B86DE"/>
</svg>
