<svg width="44" height="41" viewBox="0 0 44 41" fill="none" xmlns="http://www.w3.org/2000/svg">
<path d="M0 5.14646C0 3.79964 0.49551 2.68853 1.48649 1.81313C2.47746 0.937697 3.76578 0.5 5.35135 0.5C6.90864 0.5 8.16858 0.93095 9.13127 1.79293C10.1223 2.68182 10.6178 3.84004 10.6178 5.26768C10.6178 6.56061 10.1364 7.63802 9.17375 8.5C8.18277 9.38889 6.88031 9.83333 5.26641 9.83333H5.22394C3.66665 9.83333 2.40671 9.38889 1.44402 8.5C0.481324 7.61111 0 6.49325 0 5.14646ZM0.552124 40.5V13.5101H9.9807V40.5H0.552124ZM15.2046 40.5H24.6332V25.4293C24.6332 24.4865 24.7465 23.7592 24.973 23.2475C25.3694 22.3316 25.971 21.5572 26.778 20.9242C27.5849 20.2912 28.5972 19.9747 29.8147 19.9747C32.9859 19.9747 34.5714 22.0084 34.5714 26.0758V40.5H44V25.0253C44 21.0387 43.009 18.0152 41.027 15.9545C39.045 13.8939 36.426 12.8636 33.1699 12.8636C29.5174 12.8636 26.6718 14.3586 24.6332 17.3485V17.4293H24.5907L24.6332 17.3485V13.5101H15.2046C15.2612 14.372 15.2896 17.0522 15.2896 21.5505C15.2896 26.0488 15.2612 32.3653 15.2046 40.5Z" fill="#1B86DE"/>
</svg>
