<svg width="36" height="45" viewBox="0 0 36 45" fill="none" xmlns="http://www.w3.org/2000/svg">
<path d="M0 16.1515C0 14.2619 0.409302 12.3858 1.23256 10.5277C2.05581 8.66963 3.23256 6.942 4.76744 5.35384C6.30233 3.76569 8.31628 2.47447 10.814 1.48468C13.3116 0.494893 16.0791 0 19.1163 0C24.0465 0 28.093 1.47118 31.2558 4.40905C34.4186 7.34691 36 10.8112 36 14.8018C36 19.9307 34.6605 24.1688 31.9767 27.5116C29.293 30.8543 25.8279 32.528 21.5814 32.528C20.186 32.528 18.8744 32.213 17.6512 31.5832C16.4279 30.9533 15.5674 30.1885 15.0698 29.2887L13.2093 36.3971C13.0558 36.9685 12.8512 37.5444 12.6047 38.1293C12.3581 38.7141 12.0837 39.2765 11.7907 39.8164C11.4977 40.3563 11.2 40.8647 10.907 41.3461C10.614 41.8275 10.3163 42.2774 10.0233 42.6958C9.73023 43.1142 9.47442 43.4696 9.25581 43.753C9.03721 44.0365 8.83721 44.2839 8.65116 44.4954L8.37209 44.8553C8.27907 44.9768 8.15349 45.0218 8 44.9903C7.84651 44.9588 7.75349 44.8688 7.72093 44.7203C7.72093 44.6888 7.69767 44.4819 7.65116 44.0905C7.60465 43.6991 7.55814 43.2896 7.51163 42.8532C7.46512 42.4168 7.4186 41.8545 7.37209 41.1661C7.32558 40.4777 7.31163 39.8074 7.32558 39.164C7.33953 38.5207 7.38605 37.8053 7.46512 37.027C7.54419 36.2487 7.66047 35.5288 7.81395 34.8675C8.15349 33.4593 9.30233 28.7623 11.2558 20.7855C11.0093 20.3041 10.8047 19.7282 10.6512 19.0534C10.4977 18.3785 10.4186 17.8296 10.4186 17.4112L10.3721 16.7364C10.3721 14.8153 10.8744 13.2181 11.8837 11.9449C12.893 10.6717 14.107 10.0328 15.5349 10.0328C16.6837 10.0328 17.5721 10.4018 18.2093 11.1351C18.8465 11.8684 19.1628 12.7907 19.1628 13.902C19.1628 14.5903 19.0326 15.4407 18.7674 16.4439C18.5023 17.4472 18.1535 18.6035 17.7209 19.9082C17.2884 21.2129 16.9767 22.2702 16.7907 23.08C16.4791 24.4297 16.7535 25.5995 17.6047 26.5893C18.4558 27.579 19.5953 28.0739 21.0233 28.0739C23.4744 28.0739 25.4977 26.7332 27.093 24.0473C28.6884 21.3614 29.4884 18.1176 29.4884 14.3069C29.4884 11.396 28.5116 9.02055 26.5581 7.17595C24.6047 5.33135 21.8744 4.40905 18.3721 4.40905C14.4651 4.40905 11.293 5.62378 8.86047 8.05326C6.42791 10.4827 5.2093 13.3936 5.2093 16.7814C5.2093 18.7924 5.8 20.4841 6.97674 21.8653C7.3814 22.3152 7.50233 22.7966 7.34884 23.305C7.28837 23.4534 7.19535 23.7999 7.06977 24.3397C6.94419 24.8796 6.85116 25.226 6.7907 25.3745C6.73023 25.7029 6.57209 25.9234 6.32558 26.0269C6.07907 26.1304 5.8 26.1259 5.48837 26.0044C3.66047 25.2845 2.28837 24.0473 1.37209 22.2927C0.455814 20.5381 0 18.491 0 16.1515Z" fill="#1B86DE"/>
</svg>
